<svg xmlns="http://www.w3.org/2000/svg" xmlns:xlink="http://www.w3.org/1999/xlink" version="1.1" x="0px" y="0px" viewBox="0 0 512 512" enable-background="new 0 0 512 512" xml:space="preserve"><g><path d="M176,456H80c-13.234,0-24-10.766-24-24v-96c0-13.234,10.766-24,24-24h96c13.234,0,24,10.766,24,24v96   C200,445.234,189.234,456,176,456z M80,328c-4.411,0-8,3.589-8,8v96c0,4.411,3.589,8,8,8h96c4.411,0,8-3.589,8-8v-96   c0-4.411-3.589-8-8-8H80z"></path></g><g><path d="M432,200h-96c-13.234,0-24-10.766-24-24V80c0-13.234,10.766-24,24-24h96c13.234,0,24,10.766,24,24v96   C456,189.234,445.234,200,432,200z M336,72c-4.411,0-8,3.589-8,8v96c0,4.411,3.589,8,8,8h96c4.411,0,8-3.589,8-8V80   c0-4.411-3.589-8-8-8H336z"></path></g><g><path d="M224,392v-16c0.021,0,6.611-0.112,12.828-3.363C244.346,368.707,248,361.957,248,352V160   c0-16.085,7.253-28.571,20.422-35.155C277.839,120.136,286.988,120,288,120l0.044,16c-0.066,0-6.655,0.112-12.873,3.363   C267.654,143.293,264,150.043,264,160v192c0,16.085-7.253,28.571-20.422,35.155C234.161,391.864,225.012,392,224,392z"></path></g></svg>